<svg width="70" height="70" viewBox="0 0 70 70" fill="none" xmlns="http://www.w3.org/2000/svg">
<path fill-rule="evenodd" clip-rule="evenodd" d="M37.4971 0C40.8033 0 43.6441 2.16811 44.2661 5.16657L44.5426 6.4999C45.6298 11.7407 51.5006 14.8704 56.9597 13.1194L58.3492 12.6738C61.4724 11.672 64.9263 12.8594 66.5793 15.5032L69.0763 19.4966C70.7296 22.1405 70.1162 25.496 67.6149 27.4925L66.5026 28.3805C62.1304 31.8703 62.1304 38.1297 66.5026 41.6194L67.6149 42.5073C70.1162 44.504 70.7296 47.8594 69.0763 50.5033L66.5796 54.4967C64.9263 57.1406 61.4724 58.3279 58.3488 57.3261L56.96 56.8803C51.5006 55.1291 45.6298 58.2588 44.5426 63.5L44.2661 64.8333C43.6441 67.8318 40.8033 70 37.4971 70H32.5029C29.1967 70 26.356 67.8318 25.7339 64.8336L25.4572 63.4994C24.3698 58.2588 18.4989 55.1291 13.0398 56.8803L11.6512 57.3258C8.52778 58.3279 5.07389 57.1403 3.42061 54.4964L0.923681 50.5033C-0.729532 47.8594 -0.116309 44.504 2.38496 42.5073L3.49752 41.6194C7.8694 38.1294 7.8694 31.8703 3.49752 28.3806L2.38496 27.4926C-0.116309 25.496 -0.729528 22.1406 0.923681 19.4967L3.42071 15.5033C5.07392 12.8594 8.52772 11.672 11.6511 12.6739L13.0401 13.1194C18.4991 14.8704 24.3698 11.7409 25.4572 6.50023L25.7339 5.16632C26.356 2.16799 29.1964 0 32.5029 0H37.4971ZM35 45C40.7989 45 45.5 40.5227 45.5 35C45.5 29.477 40.7989 25 35 25C29.2008 25 24.4999 29.477 24.4999 35C24.4999 40.5227 29.2008 45 35 45Z" fill="#3B3A3A"/>
</svg>
