<svg width="50" height="43" viewBox="0 0 50 43" fill="none" xmlns="http://www.w3.org/2000/svg">
<path d="M13.125 27.375L15 23.7813C15.7813 22.2188 17.3438 21.125 19.2188 21.125H24.6875C24.8438 21.125 25 21.125 25 21.125C27.8125 17.375 32.3438 14.875 37.5 14.875C39.375 14.875 41.0937 15.1875 42.8125 15.8125C42.1875 14.875 41.4062 13.9375 40.625 13.3125H42.1875C43.125 13.3125 43.75 12.6875 43.75 11.75C43.75 10.8125 43.125 10.1875 42.1875 10.1875H37.8125L35.9375 5.5C34.6875 2.6875 31.875 0.8125 28.75 0.8125H15C11.875 0.8125 9.0625 2.6875 7.8125 5.5L5.78125 10.1875H1.5625C0.625 10.1875 0 10.8125 0 11.75C0 12.6875 0.625 13.3125 1.5625 13.3125H3.125C1.25 14.7187 0 17.0625 0 19.5625V25.8125C0 27.2187 0.625 28.4688 1.5625 29.25V32.0625C1.5625 34.7188 3.59375 36.75 6.25 36.75H9.375C12.0313 36.75 14.0625 34.7188 14.0625 32.0625V30.5H21.875C21.875 29.4063 22.0312 28.3125 22.1875 27.375H13.125ZM10.9375 22.6875H6.25C5.3125 22.6875 4.6875 22.0625 4.6875 21.125C4.6875 20.1875 5.3125 19.5625 6.25 19.5625H10.9375C11.875 19.5625 12.5 20.1875 12.5 21.125C12.5 22.0625 11.875 22.6875 10.9375 22.6875ZM8.59375 11.75L10.7813 6.75C11.5625 5.03125 13.125 3.9375 15 3.9375H28.5937C30.4687 3.9375 32.1875 5.03125 32.9688 6.75L35.1562 11.75H8.59375Z" fill="white"/>
<path d="M49.5312 27.2188C49.375 26.4375 48.4375 25.9688 47.6562 26.125C46.5625 26.4375 45.7812 26.125 45.625 25.8125C45.4688 25.5 45.625 24.7188 46.4062 23.7813C47.0312 23.1563 47.0312 22.2188 46.4062 21.5938C44.8438 20.0313 42.9687 18.9375 40.7812 18.3125C40 18.1563 39.0625 18.625 38.9062 19.4063C38.5937 20.5 37.9687 20.9688 37.5 20.9688C37.0312 20.9688 36.5625 20.3438 36.0938 19.4063C35.7813 18.625 35 18.1563 34.2187 18.3125C32.0312 18.9375 30.1562 20.0313 28.5937 21.5938C27.9687 22.2188 27.9687 23.1563 28.5937 23.7813C29.375 24.5625 29.5312 25.3438 29.375 25.8125C29.2187 26.125 28.4375 26.4375 27.3437 26.125C26.5625 25.9688 25.625 26.4375 25.4687 27.2188C25.1562 28.3125 25 29.4063 25 30.5C25 31.5938 25.1562 32.6875 25.4687 33.7813C25.625 34.5625 26.5625 35.0313 27.3437 34.875C28.4375 34.5625 29.2187 34.875 29.375 35.1875C29.5312 35.5 29.375 36.2813 28.5937 37.2188C27.9687 37.8438 27.9687 38.7813 28.5937 39.4063C30.1562 40.9688 32.0312 42.0625 34.2187 42.6875C35 42.8438 35.9375 42.375 36.0938 41.5938C36.4062 40.5 37.0312 40.0313 37.5 40.0313C37.9687 40.0313 38.4375 40.6563 38.9062 41.5938C39.0625 42.2188 39.6875 42.6875 40.4687 42.6875C40.625 42.6875 40.7813 42.6875 40.9375 42.6875C43.125 42.0625 45 40.9688 46.5625 39.4063C47.1875 38.7813 47.1875 37.8438 46.5625 37.2188C45.7812 36.4375 45.625 35.6563 45.7812 35.1875C45.9375 34.875 46.7187 34.5625 47.8125 34.875C48.5937 35.0313 49.5312 34.5625 49.6875 33.7813C50 32.6875 50.1562 31.5938 50.1562 30.5C50.1562 29.4063 49.8437 28.3125 49.5312 27.2188ZM37.5 35.1875C34.8437 35.1875 32.8125 33.1563 32.8125 30.5C32.8125 27.8438 34.8437 25.8125 37.5 25.8125C40.1562 25.8125 42.1875 27.8438 42.1875 30.5C42.1875 33.1563 40.1562 35.1875 37.5 35.1875Z" fill="white"/>
</svg>
