<svg width="70" height="70" viewBox="0 0 70 70" fill="none" xmlns="http://www.w3.org/2000/svg">
<path fill-rule="evenodd" clip-rule="evenodd" d="M25.2326 0H28.4884C37.6971 0 42.3015 0 45.1624 2.96422C48.0233 5.92844 48.0233 10.6993 48.0233 20.241V48.0723H53.1394C57.0568 48.0723 60.2326 51.3628 60.2326 55.4218V55.6626C60.2326 57.06 61.3259 58.1928 62.6744 58.1928C64.023 58.1928 65.1163 57.06 65.1163 55.6626V39.6386L61.1302 38.2618C59.1357 37.573 57.7907 35.6393 57.7907 33.4613V25.3012C57.7907 22.5065 59.9773 20.241 62.6744 20.241H65.1163V18.9674C65.1163 18.3431 65.1153 18.1286 65.1049 17.9326C64.9961 15.9267 64.1242 14.0474 62.6806 12.7064C62.5393 12.5753 62.3785 12.4406 61.908 12.0506L57.8933 8.72278C56.84 7.84985 56.6694 6.25766 57.5117 5.16654C58.3543 4.07538 59.891 3.89848 60.944 4.7714L65.0114 8.14287C65.4096 8.47297 65.6844 8.70075 65.9403 8.93848C68.3467 11.1735 69.7994 14.3057 69.9808 17.6488C70 18.0044 70 18.369 70 18.8975V55.6626C70 59.8549 66.7201 63.253 62.6744 63.253C58.6287 63.253 55.3488 59.8549 55.3488 55.6626V55.4218C55.3488 54.1574 54.3597 53.1325 53.1394 53.1325H48.0233V64.9398H51.6808C53.0294 64.9398 54.1227 66.0726 54.1227 67.4699C54.1227 68.8672 53.0294 70 51.6808 70H2.44186C1.09327 70 0 68.8672 0 67.4699C0 66.0726 1.09327 64.9398 2.44186 64.9398H5.69767V20.241C5.69767 10.6993 5.69767 5.92844 8.55849 2.96422C11.4193 0 16.0237 0 25.2326 0ZM19.5349 48.0723C18.1863 48.0723 17.093 49.2051 17.093 50.6024C17.093 51.9997 18.1863 53.1325 19.5349 53.1325H35.814C37.1625 53.1325 38.2558 51.9997 38.2558 50.6024C38.2558 49.2051 37.1625 48.0723 35.814 48.0723H19.5349ZM32.5581 13.494H22.7907C19.7211 13.494 18.1863 13.494 17.2327 14.482C16.2791 15.4701 16.2791 17.0604 16.2791 20.241C16.2791 23.4215 16.2791 25.0118 17.2327 25.9999C18.1863 26.988 19.7211 26.988 22.7907 26.988H32.5581C35.6277 26.988 37.1625 26.988 38.1161 25.9999C39.0698 25.0118 39.0698 23.4215 39.0698 20.241C39.0698 17.0604 39.0698 15.4701 38.1161 14.482C37.1625 13.494 35.6277 13.494 32.5581 13.494Z" fill="#3B3A3A"/>
</svg>
