<svg width="50" height="50" viewBox="0 0 50 50" fill="none" xmlns="http://www.w3.org/2000/svg">
<path fill-rule="evenodd" clip-rule="evenodd" d="M18.0233 0H20.3488C26.9265 0 30.2153 0 32.2588 2.1173C34.3023 4.2346 34.3023 7.64234 34.3023 14.4578V34.3374H37.9567C40.7549 34.3374 43.0233 36.6877 43.0233 39.587V39.759C43.0233 40.7571 43.8042 41.5663 44.7674 41.5663C45.7307 41.5663 46.5116 40.7571 46.5116 39.759V28.3133L43.6644 27.3299C42.2398 26.8378 41.2791 25.4566 41.2791 23.901V18.0723C41.2791 16.0761 42.8409 14.4578 44.7674 14.4578H46.5116V13.5481C46.5116 13.1022 46.5109 12.949 46.5035 12.809C46.4258 11.3762 45.803 10.0339 44.7719 9.07598C44.6709 8.98236 44.556 8.88612 44.22 8.60759L41.3523 6.23055C40.6 5.60704 40.4781 4.46976 41.0798 3.69039C41.6816 2.91099 42.7793 2.78463 43.5314 3.40814L46.4367 5.81634C46.7212 6.05212 46.9174 6.21482 47.1002 6.38463C48.8191 7.98106 49.8567 10.2184 49.9863 12.6063C50 12.8603 50 13.1207 50 13.4982V39.759C50 42.7535 47.6572 45.1807 44.7674 45.1807C41.8777 45.1807 39.5349 42.7535 39.5349 39.759V39.587C39.5349 38.6839 38.8284 37.9518 37.9567 37.9518H34.3023V46.3855H36.9149C37.8781 46.3855 38.6591 47.1947 38.6591 48.1928C38.6591 49.1908 37.8781 50 36.9149 50H1.74419C0.780907 50 0 49.1908 0 48.1928C0 47.1947 0.780907 46.3855 1.74419 46.3855H4.06977V14.4578C4.06977 7.64234 4.06977 4.2346 6.11321 2.1173C8.15665 0 11.4455 0 18.0233 0ZM13.9535 34.3374C12.9902 34.3374 12.2093 35.1465 12.2093 36.1446C12.2093 37.1427 12.9902 37.9518 13.9535 37.9518H25.5814C26.5447 37.9518 27.3256 37.1427 27.3256 36.1446C27.3256 35.1465 26.5447 34.3374 25.5814 34.3374H13.9535ZM23.2558 9.63855H16.2791C14.0865 9.63855 12.9902 9.63855 12.309 10.3443C11.6279 11.0501 11.6279 12.186 11.6279 14.4578C11.6279 16.7297 11.6279 17.8656 12.309 18.5714C12.9902 19.2771 14.0865 19.2771 16.2791 19.2771H23.2558C25.4484 19.2771 26.5447 19.2771 27.2258 18.5714C27.907 17.8656 27.907 16.7297 27.907 14.4578C27.907 12.186 27.907 11.0501 27.2258 10.3443C26.5447 9.63855 25.4484 9.63855 23.2558 9.63855Z" fill="#3B3A3A"/>
</svg>

