<svg width="70" height="60" viewBox="0 0 70 60" fill="none" xmlns="http://www.w3.org/2000/svg">
<path d="M18.375 38.125L21 33.0938C22.0938 30.9063 24.2813 29.375 26.9063 29.375H34.5625C34.7813 29.375 35 29.375 35 29.375C38.9375 24.125 45.2813 20.625 52.5 20.625C55.125 20.625 57.5312 21.0625 59.9375 21.9375C59.0625 20.625 57.9688 19.3125 56.875 18.4375H59.0625C60.375 18.4375 61.25 17.5625 61.25 16.25C61.25 14.9375 60.375 14.0625 59.0625 14.0625H52.9375L50.3125 7.5C48.5625 3.5625 44.625 0.9375 40.25 0.9375H21C16.625 0.9375 12.6875 3.5625 10.9375 7.5L8.09375 14.0625H2.1875C0.875 14.0625 0 14.9375 0 16.25C0 17.5625 0.875 18.4375 2.1875 18.4375H4.375C1.75 20.4062 0 23.6875 0 27.1875V35.9375C0 37.9062 0.875 39.6563 2.1875 40.75V44.6875C2.1875 48.4063 5.03125 51.25 8.75 51.25H13.125C16.8438 51.25 19.6875 48.4063 19.6875 44.6875V42.5H30.625C30.625 40.9688 30.8437 39.4375 31.0625 38.125H18.375ZM15.3125 31.5625H8.75C7.4375 31.5625 6.5625 30.6875 6.5625 29.375C6.5625 28.0625 7.4375 27.1875 8.75 27.1875H15.3125C16.625 27.1875 17.5 28.0625 17.5 29.375C17.5 30.6875 16.625 31.5625 15.3125 31.5625ZM12.0312 16.25L15.0938 9.25C16.1875 6.84375 18.375 5.3125 21 5.3125H40.0312C42.6562 5.3125 45.0625 6.84375 46.1563 9.25L49.2188 16.25H12.0312Z" fill="#3B3A3A"/>
<path d="M69.3437 37.9063C69.125 36.8125 67.8125 36.1563 66.7187 36.375C65.1875 36.8125 64.0937 36.375 63.875 35.9375C63.6562 35.5 63.875 34.4063 64.9687 33.0938C65.8437 32.2188 65.8437 30.9063 64.9687 30.0313C62.7812 27.8438 60.1562 26.3125 57.0937 25.4375C56 25.2188 54.6875 25.875 54.4687 26.9688C54.0312 28.5 53.1562 29.1563 52.5 29.1563C51.8437 29.1563 51.1875 28.2813 50.5312 26.9688C50.0937 25.875 49 25.2188 47.9062 25.4375C44.8437 26.3125 42.2187 27.8438 40.0312 30.0313C39.1562 30.9063 39.1562 32.2188 40.0312 33.0938C41.125 34.1875 41.3437 35.2813 41.125 35.9375C40.9062 36.375 39.8125 36.8125 38.2812 36.375C37.1875 36.1563 35.875 36.8125 35.6562 37.9063C35.2187 39.4375 35 40.9688 35 42.5C35 44.0313 35.2187 45.5625 35.6562 47.0938C35.875 48.1875 37.1875 48.8438 38.2812 48.625C39.8125 48.1875 40.9062 48.625 41.125 49.0625C41.3437 49.5 41.125 50.5938 40.0312 51.9063C39.1562 52.7813 39.1562 54.0938 40.0312 54.9688C42.2187 57.1563 44.8437 58.6875 47.9062 59.5625C49 59.7813 50.3125 59.125 50.5312 58.0313C50.9687 56.5 51.8437 55.8438 52.5 55.8438C53.1562 55.8438 53.8125 56.7188 54.4687 58.0313C54.6875 58.9063 55.5625 59.5625 56.6562 59.5625C56.875 59.5625 57.0937 59.5625 57.3125 59.5625C60.375 58.6875 63 57.1563 65.1875 54.9688C66.0625 54.0938 66.0625 52.7813 65.1875 51.9063C64.0937 50.8125 63.875 49.7188 64.0937 49.0625C64.3125 48.625 65.4062 48.1875 66.9375 48.625C68.0312 48.8438 69.3437 48.1875 69.5625 47.0938C70 45.5625 70.2187 44.0313 70.2187 42.5C70.2187 40.9688 69.7812 39.4375 69.3437 37.9063ZM52.5 49.0625C48.7812 49.0625 45.9375 46.2188 45.9375 42.5C45.9375 38.7813 48.7812 35.9375 52.5 35.9375C56.2187 35.9375 59.0625 38.7813 59.0625 42.5C59.0625 46.2188 56.2187 49.0625 52.5 49.0625Z" fill="#3B3A3A"/>
</svg>
