<svg width="50" height="50" viewBox="0 0 50 50" fill="none" xmlns="http://www.w3.org/2000/svg">
<path fill-rule="evenodd" clip-rule="evenodd" d="M26.7836 0C29.1452 0 31.1743 1.54865 31.6186 3.6904L31.8161 4.64278C32.5927 8.38622 36.7861 10.6217 40.6855 9.37103L41.678 9.05269C43.9089 8.33715 46.3759 9.18527 47.5566 11.0737L49.3402 13.9261C50.5212 15.8147 50.083 18.2114 48.2964 19.6375L47.5018 20.2718C44.3789 22.7645 44.3789 27.2355 47.5018 29.7282L48.2964 30.3624C50.083 31.7885 50.5212 34.1853 49.3402 36.0738L47.5568 38.9262C46.3759 40.8147 43.9089 41.6628 41.6777 40.9472L40.6857 40.6288C36.7861 39.3779 32.5927 41.6134 31.8161 45.3571L31.6186 46.3095C31.1743 48.4513 29.1452 50 26.7836 50H23.2164C20.8548 50 18.8257 48.4513 18.3814 46.3097L18.1837 45.3567C17.407 41.6134 13.2135 39.3779 9.31414 40.6288L8.32225 40.947C6.09127 41.6628 3.62421 40.8145 2.4433 38.926L0.659772 36.0738C-0.521094 34.1853 -0.0830778 31.7885 1.70355 30.3624L2.49823 29.7282C5.621 27.2353 5.621 22.7645 2.49823 20.2719L1.70355 19.6376C-0.0830778 18.2114 -0.521092 15.8147 0.659772 13.9262L2.44336 11.0738C3.62423 9.18529 6.09123 8.33718 8.32218 9.05276L9.31434 9.37101C13.2137 10.6217 17.407 8.38637 18.1837 4.64302L18.3814 3.69023C18.8257 1.54857 20.8546 0 23.2164 0H26.7836ZM25 32.1429C29.1421 32.1429 32.5 28.9448 32.5 25C32.5 21.055 29.1421 17.8571 25 17.8571C20.8577 17.8571 17.4999 21.055 17.4999 25C17.4999 28.9448 20.8577 32.1429 25 32.1429Z" fill="#3B3A3A"/>
</svg>
