<svg width="70" height="70" viewBox="0 0 70 70" fill="none" xmlns="http://www.w3.org/2000/svg">
<path d="M17.9084 45.15C18.4918 48.0666 21.0584 50.1666 23.975 50.1666C24.4416 50.1666 24.9084 50.05 25.2584 50.05C28.6418 49.35 31.9084 49 34.9418 49C37.9751 49 41.2418 49.35 44.5084 50.05C47.8918 50.75 51.1584 48.5334 51.8584 45.15C51.975 44.8 51.975 44.3334 52.0918 43.9834C52.2084 43.05 52.2084 42 51.9751 41.0667L48.5918 26.4834C48.0084 24.15 46.2584 22.4 44.0418 21.8167C42.5251 21.3501 39.7251 20.8834 35.9918 20.8834C35.5251 20.8834 35.1751 20.8834 35.1751 20.8834H34.9418H34.5918C34.5918 20.8834 34.2418 20.8834 33.7751 20.8834C30.0418 20.8834 27.3585 21.35 25.7251 21.8167C23.3918 22.4001 21.7585 24.2667 21.1751 26.4834L17.7918 41.0667C17.5584 42.1167 17.5584 43.0501 17.6751 43.9834C17.7916 44.45 17.7916 44.8 17.9084 45.15ZM20.125 41.65L23.5084 27.0666C23.8584 25.6666 24.9084 24.5 26.3084 24.15C27.7084 23.8 30.275 23.3334 33.775 23.3334C34.2416 23.3334 34.475 23.3334 34.5916 23.3334H34.9416H35.4082C35.4082 23.3334 35.7582 23.3334 36.1082 23.3334C39.6082 23.3334 42.0582 23.8 43.6916 24.15C45.0916 24.5 46.1416 25.6666 46.4916 27.0666L49.875 41.65C50.1084 42.35 50.1084 42.9334 49.9916 43.6334C49.875 43.9834 49.875 44.3334 49.7582 44.6834C49.3175 46.6666 47.4201 48.0246 45.4416 47.7765V44.3334C45.4416 43.6334 44.975 43.1667 44.275 43.1667C43.575 43.1667 43.1084 43.6334 43.1084 44.3334V47.3557C42.3246 47.227 41.5469 47.1172 40.775 47.0247V43.1667C40.775 42.4667 40.3084 42.0001 39.6084 42.0001C38.9084 42.0001 38.4418 42.4667 38.4418 43.1667V46.7983C37.6577 46.7404 36.8797 46.7013 36.1084 46.6819V42C36.1084 41.3 35.6418 40.8334 34.9418 40.8334C34.2418 40.8334 33.7751 41.3 33.7751 42V46.6818C33.0025 46.7012 32.2242 46.7406 31.4418 46.7985V43.1666C31.4418 42.4666 30.9751 42 30.2751 42C29.5751 42 29.1085 42.4666 29.1085 43.1666V47.0274C28.3328 47.1219 27.5546 47.2343 26.7751 47.3661V44.3334C26.7751 43.6334 26.3085 43.1667 25.6085 43.1667C24.9085 43.1667 24.4419 43.6334 24.4419 44.3334V47.7871C22.4189 47.9806 20.6756 46.6347 20.2419 44.6834C20.1253 44.3334 20.0085 43.9834 20.0085 43.6334C19.8916 43.05 20.0084 42.35 20.125 41.65Z" fill="#3B3A3A"/>
<path d="M64.225 58.2166C64.225 56.2332 63.525 54.4832 62.2416 53.3166C60.7935 51.9537 58.7865 51.4619 57.445 51.2955C58.1509 49.524 58.7027 47.4324 59.0916 45.0332C59.325 43.1666 59.325 41.2999 58.8582 39.4332L54.6582 21.8166C53.3425 17.6405 48.717 15.6812 44.2749 14.7681V11.6666H47.5415C48.8249 11.6666 49.9915 11.0832 50.4581 10.15C51.1581 9.1 51.3915 7.81662 50.9247 6.65L49.4081 2.45C48.825 0.933379 47.425 0 45.9084 0H23.8584C22.3418 0 20.9418 0.933379 20.3584 2.33338L18.8418 6.53338C18.4918 7.7 18.6084 8.98338 19.3084 10.0334C20.0084 11.0834 21.0584 11.6668 22.3418 11.6668H25.6084V14.7623C21.1211 15.6811 16.4343 17.6675 15.1084 21.9334L11.025 39.4334C10.5584 41.3 10.4416 43.1668 10.7916 45.0334C11.1893 47.4864 11.7571 49.6181 12.486 51.4146C11.1334 51.5832 9.19967 52.0769 7.75824 53.4334C6.475 54.7166 5.775 56.35 5.775 58.45C5.775 58.5635 6.54842 69.3703 19.775 69.9725V70H20.9416H22.1082H47.775H48.9416H50.1082V69.9725C63.335 69.3701 64.1117 58.5569 64.225 58.2166ZM21.175 8.75C20.9416 8.4 20.9416 7.93338 21.0584 7.46662L22.575 3.26662C22.6916 2.68324 23.275 2.33324 23.8584 2.33324H46.025C46.6084 2.33324 47.075 2.68324 47.3084 3.26662L48.825 7.46662C49.0584 7.93324 48.9416 8.4 48.7084 8.75C48.475 9.1 48.0084 9.33338 47.5418 9.33338H22.3418C21.875 9.33338 21.4084 9.1 21.175 8.75ZM27.9416 11.6666H41.9416V14.3728C38.2661 13.875 35.188 13.9999 34.9416 13.9999C34.6485 13.9999 31.5919 13.8775 27.9416 14.369V11.6666ZM13.3584 40.0166L17.4418 22.5166C19.0751 17.3832 28.7584 16.3332 33.7751 16.3332C34.2418 16.3332 34.5918 16.3332 34.9418 16.3332C39.2584 16.0999 50.6918 16.7999 52.4418 22.3999L56.7584 40.0165C57.225 41.5331 57.225 43.1665 56.9918 44.6831C56.6956 46.4599 56.1906 48.7378 55.3179 50.7836L55.2418 50.7499L54.6584 51.7999C53.2122 54.4698 51.4473 55.8657 49.2635 55.9897C47.9466 55.5148 42.1794 53.7201 35.3546 53.6689C35.3082 53.6684 35.2615 53.6681 35.2148 53.6679C35.1626 53.6676 35.1107 53.6666 35.0584 53.6666C35.044 53.6666 35.0298 53.6669 35.0155 53.667C34.9908 53.667 34.9664 53.6666 34.9418 53.6666C33.654 53.6666 32.4026 53.7321 31.2096 53.8413C31.2041 53.8419 31.1985 53.8423 31.1931 53.8429C31.0656 53.8546 30.9388 53.8666 30.8126 53.8794C25.6886 54.381 21.7638 55.6257 20.8305 55.9978C20.8132 55.9975 20.7959 55.9973 20.7787 55.9969C15.6808 55.724 13.823 48.8705 13.1251 44.6832C12.8916 43.1666 13.0084 41.5334 13.3584 40.0166ZM8.10838 58.3334C8.10838 56.9334 8.45838 55.8834 9.275 55.0668C10.6731 53.7852 12.7688 53.6672 13.5879 53.6668C14.7425 55.6269 16.1721 56.9885 17.8579 57.7149C18.4699 57.9992 19.109 58.2065 19.775 58.3334V67.6668C8.80838 67.0834 8.10838 58.6834 8.10838 58.3334ZM22.1084 67.6666V57.9832C23.9702 57.4014 29.0819 56.0075 34.8965 56.0003C34.9789 56.0004 35.0613 56.0007 35.1433 56.0014C35.1553 56.0014 35.1673 56.0015 35.1794 56.0016C40.9735 56.0573 45.9845 57.4602 47.7751 58.0039V67.6666H22.1084ZM50.1084 67.55V58.2493C52.6478 57.8893 54.7258 56.3315 56.2955 53.6668C57.1145 53.667 59.2103 53.7852 60.6084 55.0668C61.425 55.8834 61.775 56.9334 61.775 58.2168C61.775 58.5666 61.1916 66.9666 50.1084 67.55Z" fill="#3B3A3A"/>
</svg>
