<svg width="51" height="50" viewBox="0 0 51 50" fill="none" xmlns="http://www.w3.org/2000/svg">
<path d="M11.1543 32.25C11.6533 34.3333 13.8489 35.8333 16.3439 35.8333C16.743 35.8333 17.1423 35.75 17.4417 35.75C20.336 35.25 23.1303 35 25.7252 35C28.32 35 31.1144 35.25 33.9088 35.75C36.803 36.25 39.5974 34.6667 40.1962 32.25C40.296 32 40.296 31.6667 40.3958 31.4167C40.4956 30.75 40.4956 30 40.2961 29.3334L37.4018 18.9167C36.9028 17.25 35.4058 16 33.5096 15.5834C32.2122 15.2501 29.817 14.9167 26.6234 14.9167C26.2242 14.9167 25.9248 14.9167 25.9248 14.9167H25.7252H25.4258C25.4258 14.9167 25.1264 14.9167 24.7272 14.9167C21.5336 14.9167 19.2382 15.25 17.841 15.5834C15.8449 16.0001 14.4478 17.3334 13.9488 18.9167L11.0545 29.3334C10.8549 30.0834 10.8549 30.7501 10.9548 31.4167C11.0544 31.75 11.0544 32 11.1543 32.25ZM13.0504 29.75L15.9447 19.3333C16.2441 18.3333 17.1423 17.5 18.3399 17.25C19.5375 17 21.7331 16.6667 24.7271 16.6667C25.1263 16.6667 25.3259 16.6667 25.4257 16.6667H25.7251H26.1242C26.1242 16.6667 26.4236 16.6667 26.723 16.6667C29.717 16.6667 31.8128 17 33.2101 17.25C34.4077 17.5 35.3059 18.3333 35.6053 19.3333L38.4996 29.75C38.6992 30.25 38.6992 30.6667 38.5993 31.1667C38.4996 31.4167 38.4996 31.6667 38.3997 31.9167C38.0226 33.3333 36.3995 34.3033 34.7071 34.1261V31.6667C34.7071 31.1667 34.3079 30.8334 33.7091 30.8334C33.1103 30.8334 32.7112 31.1667 32.7112 31.6667V33.8255C32.0407 33.7336 31.3754 33.6552 30.7151 33.5891V30.8334C30.7151 30.3334 30.316 30.0001 29.7172 30.0001C29.1184 30.0001 28.7192 30.3334 28.7192 30.8334V33.4273C28.0485 33.386 27.383 33.3581 26.7231 33.3442V30C26.7231 29.5 26.324 29.1667 25.7252 29.1667C25.1264 29.1667 24.7272 29.5 24.7272 30V33.3441C24.0663 33.358 23.4005 33.3861 22.7312 33.4275V30.8333C22.7312 30.3333 22.332 30 21.7332 30C21.1344 30 20.7352 30.3333 20.7352 30.8333V33.591C20.0716 33.6585 19.4059 33.7388 18.7392 33.8329V31.6667C18.7392 31.1667 18.34 30.8334 17.7412 30.8334C17.1424 30.8334 16.7433 31.1667 16.7433 31.6667V34.1337C15.0127 34.2719 13.5214 33.3105 13.1504 31.9167C13.0507 31.6667 12.9508 31.4167 12.9508 31.1667C12.8508 30.75 12.9507 30.25 13.0504 29.75Z" fill="#3B3A3A"/>
<path d="M50.775 41.5833C50.775 40.1666 50.1762 38.9166 49.0784 38.0833C47.8396 37.1098 46.1227 36.7585 44.9752 36.6396C45.579 35.3743 46.051 33.8803 46.3837 32.1666C46.5834 30.8333 46.5834 29.4999 46.1841 28.1666L42.5913 15.5833C41.4657 12.6004 37.509 11.2009 33.709 10.5486V8.3333H36.5034C37.6012 8.3333 38.5992 7.9166 38.9984 7.25C39.5972 6.5 39.7968 5.5833 39.3975 4.75L38.1002 1.75C37.6013 0.666699 36.4037 0 35.1064 0H16.2441C14.9467 0 13.7491 0.666699 13.2501 1.6667L11.9527 4.6667C11.6533 5.5 11.7531 6.4167 12.3519 7.1667C12.9507 7.9167 13.8489 8.3334 14.9467 8.3334H17.7411V10.5445C13.9026 11.2008 9.89329 12.6196 8.75907 15.6667L5.26602 28.1667C4.86686 29.5 4.76698 30.8334 5.06638 32.1667C5.4066 33.9188 5.89231 35.4415 6.51578 36.7247C5.35876 36.8451 3.70457 37.1978 2.47153 38.1667C1.3738 39.0833 0.775002 40.25 0.775002 41.75C0.775002 41.8311 1.43661 49.5502 12.751 49.9804V50H13.749H14.747H36.7031H37.7011H38.6991V49.9804C50.0136 49.5501 50.678 41.8264 50.775 41.5833ZM13.9487 6.25C13.749 6 13.749 5.6667 13.8489 5.3333L15.1463 2.3333C15.246 1.9166 15.7451 1.6666 16.2441 1.6666H35.2061C35.7052 1.6666 36.1043 1.9166 36.304 2.3333L37.6013 5.3333C37.801 5.6666 37.7011 6 37.5016 6.25C37.3019 6.5 36.9028 6.6667 36.5036 6.6667H14.9467C14.5475 6.6667 14.1483 6.5 13.9487 6.25ZM19.737 8.3333H31.7131V10.2663C28.5689 9.91074 25.9358 9.9999 25.7251 9.9999C25.4743 9.9999 22.8596 9.9125 19.737 10.2636V8.3333ZM7.26207 28.5833L10.7551 16.0833C12.1524 12.4166 20.4357 11.6666 24.7272 11.6666C25.1264 11.6666 25.4258 11.6666 25.7252 11.6666C29.4178 11.4999 39.1982 11.9999 40.6952 15.9999L44.3878 28.5832C44.787 29.6665 44.787 30.8332 44.5875 31.9165C44.3341 33.1856 43.9021 34.8127 43.1556 36.274L43.0904 36.2499L42.5914 36.9999C41.3543 38.907 39.8445 39.9041 37.9764 39.9927C36.8499 39.6534 31.9165 38.3715 26.0784 38.335C26.0386 38.3346 25.9987 38.3344 25.9587 38.3342C25.9141 38.334 25.8697 38.3333 25.8249 38.3333C25.8127 38.3333 25.8005 38.3335 25.7882 38.3336C25.7672 38.3336 25.7462 38.3333 25.7252 38.3333C24.6236 38.3333 23.5531 38.3801 22.5326 38.4581C22.5279 38.4585 22.5231 38.4588 22.5184 38.4592C22.4094 38.4676 22.3009 38.4762 22.1929 38.4853C17.8098 38.8436 14.4524 39.7326 13.6539 39.9984C13.6392 39.9982 13.6243 39.998 13.6096 39.9978C9.24876 39.8028 7.65947 34.9075 7.06254 31.9166C6.86279 30.8333 6.96266 29.6667 7.26207 28.5833ZM2.77105 41.6667C2.77105 40.6667 3.07045 39.9167 3.76901 39.3334C4.96498 38.418 6.75776 38.3337 7.45843 38.3334C8.4461 39.7335 9.66897 40.7061 11.1111 41.2249C11.6346 41.428 12.1814 41.5761 12.751 41.6667V48.3334C3.36985 47.9167 2.77105 41.9167 2.77105 41.6667ZM14.7471 48.3333V41.4166C16.3398 41.001 20.7124 40.0054 25.6865 40.0002C25.757 40.0003 25.8274 40.0005 25.8976 40.001C25.9079 40.001 25.9182 40.0011 25.9284 40.0012C30.8849 40.0409 35.1715 41.043 36.7033 41.4313V48.3333H14.7471ZM38.6992 48.25V41.6066C40.8715 41.3495 42.6491 40.2368 43.9918 38.3334C44.6925 38.3336 46.4853 38.418 47.6812 39.3334C48.3798 39.9167 48.6792 40.6667 48.6792 41.5834C48.6792 41.8333 48.1802 47.8333 38.6992 48.25Z" fill="#3B3A3A"/>
</svg>

