<svg width="70" height="70" viewBox="0 0 70 70" fill="none" xmlns="http://www.w3.org/2000/svg">
<g clip-path="url(#clip0_105_33)">
<path d="M35.0003 0C15.7011 0 0 15.7009 0 35C0 54.2991 15.7011 70 35.0003 70C54.2991 70 70.0003 54.2991 70.0003 35C70.0003 15.7009 54.2989 0 35.0003 0ZM35.0003 59.8586C21.271 59.8586 10.1414 48.7293 10.1414 35C10.1414 21.2707 21.271 10.1414 35.0003 10.1414C48.729 10.1414 59.8588 21.2707 59.8588 35C59.8588 48.7293 48.7287 59.8586 35.0003 59.8586Z" fill="#3B3A3A"/>
<path d="M35.0003 13.3597C23.0674 13.3597 13.3596 23.0674 13.3596 35C13.3596 46.9326 23.0677 56.6403 35.0003 56.6403C46.9329 56.6403 56.6406 46.9326 56.6406 35C56.6406 23.0674 46.9326 13.3597 35.0003 13.3597ZM53.8693 33.6203H43.3692C43.1547 32.2933 42.6305 31.0695 41.8745 30.0233L49.2873 22.6106C51.8895 25.6072 53.5648 29.4255 53.8693 33.6203ZM36.358 16.1291C40.5503 16.428 44.3673 18.0971 47.3655 20.6918L39.9544 28.1032C38.9082 27.3474 37.6847 26.8235 36.358 26.609V16.1291ZM33.6422 16.1291V26.6088C32.3156 26.8233 31.0918 27.3472 30.0456 28.1032L22.6342 20.6921C25.6324 18.0973 29.4499 16.428 33.6422 16.1291ZM20.7122 22.6109L28.1252 30.0236C27.3692 31.0695 26.8453 32.2933 26.6307 33.62H16.1307C16.4351 29.4255 18.1105 25.6074 20.7122 22.6109ZM16.1277 36.3357H26.631C26.8453 37.6624 27.3694 38.8862 28.1255 39.9324L20.6921 47.3658C18.0926 44.362 16.4222 40.5366 16.1277 36.3357ZM33.6422 53.871C29.4386 53.5712 25.6126 51.8941 22.6106 49.2876L30.0456 41.8525C31.0918 42.6086 32.3156 43.1325 33.6422 43.347V53.871ZM33.6422 40.5534V40.5732C33.0562 40.4307 32.5062 40.1992 32.0051 39.8928L32.018 39.8799C31.2342 39.4019 30.5758 38.7435 30.0979 37.9594L30.0852 37.9721C29.7788 37.471 29.5473 36.9213 29.4048 36.3352H29.4243C29.3185 35.8993 29.2563 35.4461 29.2563 34.9775C29.2563 34.5088 29.3187 34.0556 29.4243 33.6197H29.4048C29.5473 33.0339 29.7786 32.4842 30.0852 31.9831L30.0979 31.9957C30.5758 31.212 31.2345 30.5533 32.018 30.0756L32.0051 30.0627C32.5062 29.7563 33.0562 29.5245 33.6422 29.3823V29.4021C34.0784 29.2962 34.5314 29.2338 35.0003 29.2338C35.4692 29.2338 35.9221 29.2962 36.3583 29.4021V29.3823C36.9443 29.5247 37.4941 29.756 37.9949 30.0624L37.982 30.0753C38.766 30.553 39.4244 31.2117 39.9024 31.9955L39.915 31.9828C40.2217 32.4839 40.4533 33.0339 40.5957 33.62H40.5762C40.6821 34.0559 40.7442 34.5091 40.7442 34.9777C40.7442 35.4463 40.6818 35.8996 40.5762 36.3355H40.5957C40.4533 36.9215 40.222 37.4716 39.915 37.9726L39.9024 37.96C39.4244 38.7438 38.7658 39.4022 37.982 39.8801L37.9949 39.8928C37.4941 40.1992 36.9443 40.4307 36.3583 40.5732V40.5534C35.9221 40.6593 35.4692 40.7217 35.0003 40.7217C34.5314 40.7217 34.0784 40.6595 33.6422 40.5534ZM36.358 53.871V43.347C37.6847 43.1325 38.9082 42.6086 39.9544 41.8528L47.3891 49.2876C44.3873 51.8941 40.5613 53.5712 36.358 53.871ZM49.3079 47.3658L41.8748 39.9327C42.6308 38.8865 43.1547 37.6627 43.3695 36.3357H53.8726C53.5778 40.5366 51.9076 44.362 49.3079 47.3658Z" fill="#3B3A3A"/>
</g>
<defs>
<clipPath id="clip0_105_33">
<rect width="70" height="70" fill="white"/>
</clipPath>
</defs>
</svg>
