<svg width="50" height="50" viewBox="0 0 50 50" fill="none" xmlns="http://www.w3.org/2000/svg">
<path d="M25.0002 0C11.2151 0 0 11.2149 0 25C0 38.7851 11.2151 50 25.0002 50C38.7851 50 50.0002 38.7851 50.0002 25C50.0002 11.2149 38.7849 0 25.0002 0ZM25.0002 42.7561C15.1936 42.7561 7.24388 34.8066 7.24388 25C7.24388 15.1934 15.1936 7.24388 25.0002 7.24388C34.8064 7.24388 42.7563 15.1934 42.7563 25C42.7563 34.8066 34.8062 42.7561 25.0002 42.7561Z" fill="#3B3A3A"/>
<path d="M25.0002 9.54261C16.4767 9.54261 9.5426 16.4767 9.5426 25C9.5426 33.5233 16.4769 40.4574 25.0002 40.4574C33.5235 40.4574 40.4576 33.5233 40.4576 25C40.4576 16.4767 33.5233 9.54261 25.0002 9.54261ZM38.4781 24.0145H30.978C30.8248 23.0666 30.4504 22.1925 29.9104 21.4452L35.2052 16.1504C37.0639 18.2908 38.2606 21.0182 38.4781 24.0145ZM25.97 11.5208C28.9645 11.7343 31.6909 12.9265 33.8325 14.7799L28.5388 20.0737C27.7916 19.5339 26.9176 19.1597 25.97 19.0064V11.5208ZM24.0302 11.5208V19.0063C23.0825 19.1595 22.2084 19.5337 21.4611 20.0737L16.1673 14.7801C18.3089 12.9267 21.0357 11.7343 24.0302 11.5208ZM14.7944 16.1506L20.0894 21.4454C19.5494 22.1925 19.1752 23.0666 19.022 24.0143H11.5219C11.7394 21.0182 12.9361 18.291 14.7944 16.1506ZM11.5198 25.9541H19.0222C19.1752 26.9017 19.5496 27.7759 20.0896 28.5231L14.7801 33.8327C12.9233 31.6872 11.7301 28.9547 11.5198 25.9541ZM24.0302 38.4792C21.0276 38.2651 18.2947 37.0672 16.1504 35.2054L21.4611 29.8947C22.2084 30.4347 23.0825 30.8089 24.0302 30.9621V38.4792ZM24.0302 28.9667V28.9808C23.6116 28.8791 23.2187 28.7137 22.8608 28.4948L22.87 28.4856C22.3102 28.1442 21.8399 27.6739 21.4985 27.1139L21.4894 27.1229C21.2706 26.765 21.1052 26.3723 21.0034 25.9537H21.0174C20.9418 25.6424 20.8974 25.3186 20.8974 24.9839C20.8974 24.6492 20.942 24.3254 21.0174 24.0141H21.0034C21.1052 23.5957 21.2704 23.203 21.4894 22.8451L21.4985 22.8541C21.8399 22.2942 22.3103 21.8238 22.87 21.4826L22.8608 21.4733C23.2187 21.2545 23.6116 21.0889 24.0302 20.9873V21.0015C24.3417 20.9259 24.6653 20.8813 25.0002 20.8813C25.3351 20.8813 25.6586 20.9259 25.9702 21.0015V20.9873C26.3888 21.0891 26.7815 21.2543 27.1392 21.4731L27.13 21.4824C27.69 21.8236 28.1603 22.2941 28.5017 22.8539L28.5107 22.8449C28.7298 23.2028 28.8952 23.5957 28.9969 24.0143H28.983C29.0586 24.3256 29.103 24.6494 29.103 24.9841C29.103 25.3188 29.0584 25.6425 28.983 25.9539H28.9969C28.8952 26.3725 28.73 26.7654 28.5107 27.1233L28.5017 27.1143C28.1603 27.6741 27.6898 28.1444 27.13 28.4858L27.1392 28.4948C26.7815 28.7137 26.3888 28.8791 25.9702 28.9808V28.9667C25.6586 29.0423 25.3351 29.0869 25.0002 29.0869C24.6653 29.0869 24.3417 29.0425 24.0302 28.9667ZM25.97 38.4792V30.9621C26.9176 30.8089 27.7916 30.4347 28.5388 29.8949L33.8494 35.2054C31.7052 37.0672 28.9724 38.2651 25.97 38.4792ZM35.2199 33.8327L29.9106 28.5233C30.4506 27.7761 30.8248 26.9019 30.9782 25.9541H38.4804C38.2698 28.9547 37.0769 31.6872 35.2199 33.8327Z" fill="#3B3A3A"/>
</svg>
